<svg width="1369" height="1369" viewBox="0 0 1369 1369" fill="none" xmlns="http://www.w3.org/2000/svg">
<circle cx="684.088" cy="684.088" r="525.5" transform="rotate(22.2582 684.088 684.088)" fill="#00993F" stroke="#B6DCAE" stroke-width="2"/>
<g opacity="0.1">
<mask id="mask0_28_40" style="mask-type:alpha" maskUnits="userSpaceOnUse" x="159" y="159" width="1050" height="1050">
<circle cx="684.088" cy="684.088" r="524.5" transform="rotate(22.2582 684.088 684.088)" fill="#00993F"/>
</mask>
<g mask="url(#mask0_28_40)">
<g style="mix-blend-mode:darken">
<path d="M1451.84 353.901L407.357 -73.5837L-61.3376 1071.59L983.149 1499.08L1451.84 353.901Z" fill="black"/>
<path d="M-61.3346 1071.59L983.152 1499.07L1451.85 353.894L407.36 -73.5908L-61.3346 1071.59Z" fill="white"/>
<path d="M1002.37 1473C993.166 1482.21 984.001 1491.62 974.876 1501.22C983.605 1490.47 992.41 1479.87 1001.28 1469.42L1002.37 1473Z" fill="black"/>
<path d="M1023.53 1420.34C1000.06 1443.23 976.85 1467.39 953.962 1492.66C976.457 1466.24 999.357 1440.82 1022.61 1416.59L1023.53 1420.34Z" fill="black"/>
<path d="M1042.76 1372.77C1005.54 1406.79 968.874 1444.09 933.056 1484.1C968.478 1442.94 1004.88 1404.33 1042 1368.87L1042.76 1372.77Z" fill="black"/>
<path d="M1060.71 1329.2C1035.41 1350.73 1010.31 1373.77 985.522 1398.21C960.731 1422.65 936.245 1448.49 912.146 1475.53C936.049 1447.91 960.381 1421.44 985.069 1396.33C1009.76 1371.21 1034.81 1347.45 1060.11 1325.16L1060.71 1329.2L1060.71 1329.2Z" fill="black"/>
<path d="M1076.55 1289.97C1044.93 1314.97 1013.53 1342.35 982.587 1371.94C951.639 1401.53 921.136 1433.33 891.237 1466.97C920.937 1432.76 951.298 1400.31 982.171 1370.03C1013.04 1339.74 1044.42 1311.61 1076.09 1285.81L1076.55 1289.97Z" fill="black"/>
<path d="M1090.66 1254.3C1053.04 1281.93 1015.63 1312.9 978.798 1347.06C941.963 1381.2 905.722 1418.52 870.323 1458.41C905.522 1417.95 941.633 1379.98 978.411 1345.12C1015.19 1310.24 1052.62 1278.48 1090.34 1250.03L1090.66 1254.3Z" fill="black"/>
<path d="M1105.09 1220.38C1061.45 1250.05 1017.97 1284.11 975.18 1322.55C932.392 1360.95 890.338 1403.68 849.417 1449.85C890.137 1403.1 932.071 1359.71 974.831 1320.57C1017.58 1281.4 1061.13 1246.53 1104.9 1216.02L1105.09 1220.38Z" fill="black"/>
<path d="M1116.99 1189.99C1092.41 1205.52 1067.84 1222.38 1043.37 1240.64C1018.9 1258.91 994.53 1278.57 970.369 1299.61C946.205 1320.64 922.243 1343.05 898.577 1366.73C874.91 1390.39 851.536 1415.3 828.515 1441.28C851.439 1415.01 874.733 1389.78 898.346 1365.79C921.959 1341.79 945.892 1319.01 970.05 1297.6C994.212 1276.18 1018.6 1256.12 1043.11 1237.45C1067.63 1218.78 1092.26 1201.5 1116.93 1185.54L1117 1189.98L1116.99 1189.99Z" fill="black"/>
<path d="M1128.28 1161.52C1101.01 1177.53 1073.72 1195.1 1046.51 1214.37C1019.3 1233.65 992.186 1254.64 965.293 1277.34C938.396 1300.03 911.728 1324.44 885.413 1350.41C859.095 1376.37 833.133 1403.89 807.6 1432.72C833.033 1403.6 858.922 1375.77 885.19 1349.46C911.458 1323.15 938.106 1298.38 965.004 1275.3C991.905 1252.22 1019.06 1230.82 1046.32 1211.13C1073.58 1191.44 1100.96 1173.45 1128.32 1157.01L1128.28 1161.51L1128.28 1161.52Z" fill="black"/>
<path d="M1140.14 1134.17C1110.16 1150.49 1080.13 1168.57 1050.14 1188.69C1020.16 1208.81 990.24 1230.97 960.555 1255.23C930.871 1279.47 901.435 1305.81 872.407 1334.06C843.382 1362.3 814.772 1392.45 786.685 1424.17C814.676 1392.16 843.209 1361.7 872.194 1333.11C901.175 1304.52 930.599 1277.81 960.3 1253.17C989.997 1228.52 1019.97 1205.95 1050.02 1185.41C1080.07 1164.86 1110.21 1146.35 1140.28 1129.6L1140.14 1134.17Z" fill="black"/>
<path d="M1151.93 1108.2C1119.28 1124.69 1086.52 1143.11 1053.78 1163.91C1021.04 1184.69 988.327 1207.84 955.854 1233.51C923.383 1259.16 891.166 1287.33 859.42 1317.79C827.674 1348.25 796.416 1380.99 765.774 1415.6C796.316 1380.7 827.506 1347.63 859.213 1316.83C890.918 1286.01 923.13 1257.47 955.629 1231.42C988.128 1205.35 1020.9 1181.77 1053.72 1160.57C1086.54 1139.35 1119.4 1120.5 1152.16 1103.58L1151.93 1108.2L1151.93 1108.2Z" fill="black"/>
<path d="M1161.19 1084.69C1126.09 1101.24 1090.84 1119.82 1055.57 1141.06C1020.3 1162.29 985.006 1186.21 949.956 1213.04C914.902 1239.87 880.1 1269.63 845.837 1302.1C811.568 1334.56 777.858 1369.71 744.872 1407.03C777.758 1369.42 811.405 1333.95 845.633 1301.13C879.864 1268.31 914.669 1238.17 949.756 1210.94C984.844 1183.69 1020.21 1159.35 1055.57 1137.7C1090.93 1116.03 1126.29 1097.02 1161.49 1080.03L1161.18 1084.69L1161.19 1084.69Z" fill="black"/>
<path d="M1169.18 1062.7C1131.76 1079.28 1094.15 1097.93 1056.46 1119.51C1018.78 1141.08 981.023 1165.59 943.49 1193.47C905.961 1221.31 868.673 1252.51 831.983 1286.84C795.291 1321.16 759.209 1358.59 723.958 1398.47C759.108 1358.3 795.124 1320.54 831.787 1285.87C868.447 1251.19 905.749 1219.59 943.321 1191.34C980.897 1163.06 1018.73 1138.12 1056.51 1116.12C1094.29 1094.11 1132.02 1075.03 1169.56 1058.01L1169.18 1062.7L1169.18 1062.7Z" fill="black"/>
<path d="M1178.57 1040.91C1138.71 1057.53 1098.64 1076.17 1058.43 1098C1018.23 1119.81 977.91 1144.83 937.78 1173.67C897.657 1202.47 857.748 1235.09 818.502 1271.32C779.249 1307.53 740.674 1347.33 703.048 1389.91C740.578 1347.04 779.089 1306.92 818.319 1270.34C857.543 1233.75 897.466 1200.73 937.649 1171.51C977.829 1142.27 1018.25 1116.81 1058.55 1094.57C1098.85 1072.31 1139.04 1053.23 1179.02 1036.19L1178.57 1040.9L1178.57 1040.91Z" fill="black"/>
<path d="M1187.27 1020.15C1145.04 1036.84 1102.58 1055.42 1059.93 1077.41C1017.29 1099.37 974.456 1124.77 931.792 1154.43C889.129 1184.07 846.653 1217.98 804.893 1256.03C763.124 1294.03 722.102 1336.12 682.143 1381.35C722.002 1335.83 762.965 1293.42 804.717 1255.04C846.459 1216.64 888.958 1182.32 931.686 1152.27C974.417 1122.18 1017.34 1096.35 1060.09 1073.96C1102.85 1051.53 1145.43 1032.52 1187.77 1015.41L1187.28 1020.15L1187.27 1020.15Z" fill="black"/>
<path d="M1195.58 1000.14C1150.99 1016.97 1106.19 1035.48 1061.15 1057.56C1016.11 1079.6 970.823 1105.25 925.651 1135.64C880.485 1165.99 835.466 1201.1 791.211 1240.87C746.952 1280.61 703.498 1324.94 661.236 1372.78C703.398 1324.65 746.795 1279.98 791.038 1239.88C835.276 1199.74 880.331 1164.22 925.567 1133.45C970.81 1102.63 1016.2 1076.55 1061.35 1054.07C1106.52 1031.56 1151.43 1012.62 1196.12 995.382L1195.59 1000.13L1195.58 1000.14Z" fill="black"/>
<path d="M1203.83 980.642C1156.88 997.713 1109.75 1016.17 1062.32 1038.28C1014.9 1060.37 967.176 1086.17 919.507 1117.19C871.851 1148.16 824.284 1184.37 777.536 1225.81C730.78 1267.22 684.89 1313.78 640.323 1364.23C684.79 1313.49 730.623 1266.59 777.37 1224.82C824.109 1183 871.718 1146.38 919.452 1114.99C967.199 1083.54 1015.04 1057.3 1062.56 1034.79C1110.11 1012.24 1157.36 993.369 1204.4 975.886L1203.83 980.65L1203.83 980.642Z" fill="black"/>
<path d="M1211.41 961.734C1162.14 979.191 1112.73 997.613 1062.98 1019.74C1013.25 1041.83 963.16 1067.71 913.059 1099.24C888.015 1115 862.981 1132.15 838.056 1150.76C813.133 1169.37 788.316 1189.45 763.717 1210.95C714.509 1253.93 666.23 1302.66 619.409 1355.66C666.13 1302.37 714.356 1253.31 763.558 1209.95C788.154 1188.26 812.982 1167.98 837.925 1149.17C862.872 1130.34 887.938 1112.99 913.025 1097.02C963.21 1065.06 1013.42 1038.75 1063.26 1016.23C1113.12 993.674 1162.64 974.824 1212 956.961L1211.41 961.733L1211.41 961.734Z" fill="black"/>
<path d="M1219.6 942.849C1167.92 960.876 1116.19 979.335 1064.09 1001.47C1012 1023.57 959.515 1049.43 906.942 1081.41C880.661 1097.39 854.376 1114.86 828.191 1133.96C802.01 1153.05 775.931 1173.76 750.081 1196.04C724.231 1218.31 698.611 1242.16 673.324 1267.41C648.033 1292.65 623.08 1319.29 598.514 1347.09C623.034 1319.15 647.947 1292.35 673.211 1266.94C698.471 1241.52 724.08 1217.49 749.931 1195.02C775.782 1172.55 801.875 1151.64 828.081 1132.35C854.291 1113.04 880.614 1095.35 906.941 1079.16C959.61 1046.74 1012.22 1020.45 1064.42 997.925C1116.64 975.366 1168.48 956.487 1220.21 938.062L1219.61 942.837L1219.6 942.849Z" fill="black"/>
<path d="M1226.23 924.624C1172.26 943.388 1118.32 961.97 1063.99 984.121C1009.68 1006.24 954.94 1032.02 900.031 1064.35C872.585 1080.5 845.118 1098.25 817.741 1117.76C790.367 1137.27 763.094 1158.54 736.053 1181.53C709.014 1204.52 682.217 1229.23 655.776 1255.48C629.337 1281.73 603.252 1309.51 577.594 1338.54C603.202 1309.36 629.246 1281.43 655.665 1255.01C682.08 1228.59 708.867 1203.69 735.91 1180.51C762.952 1157.32 790.246 1135.85 817.645 1116.14C845.046 1096.42 872.559 1078.45 900.05 1062.09C955.055 1029.32 1009.92 1003.11 1064.34 980.565C1118.78 957.994 1172.83 938.996 1226.84 919.836L1226.23 924.617L1226.23 924.624Z" fill="black"/>
<path d="M1233.49 906.165C1177.14 925.921 1120.93 944.736 1064.33 966.938C1036.03 978.032 1007.64 989.975 979.151 1003.23C950.664 1016.49 922.072 1031.08 893.441 1047.37C864.808 1063.66 836.137 1081.65 807.547 1101.56C778.959 1121.45 750.456 1143.26 722.202 1166.96C693.945 1190.65 665.941 1216.23 638.319 1243.49C610.697 1270.75 583.464 1299.68 556.687 1329.97C583.413 1299.54 610.61 1270.45 638.209 1243.02C665.804 1215.58 693.802 1189.82 722.064 1165.94C750.324 1142.05 778.845 1120.04 807.465 1099.93C836.087 1079.82 864.804 1061.61 893.483 1045.11C922.165 1028.6 950.813 1013.79 979.358 1000.32C1007.91 986.838 1036.36 974.687 1064.71 963.383C1121.41 940.761 1177.72 921.534 1234.09 901.389L1233.49 906.165Z" fill="black"/>
<path d="M1241.99 887.143C1183.12 908.225 1124.51 927.438 1065.54 949.748C1036.06 960.897 1006.49 972.821 976.802 986.085C947.119 999.342 917.319 1013.95 887.457 1030.35C857.597 1046.75 827.673 1064.95 797.814 1085.22C767.961 1105.48 738.181 1127.81 708.655 1152.22C679.13 1176.62 649.86 1203.08 621.006 1231.39C592.148 1259.69 563.715 1289.81 535.772 1321.43C563.666 1289.68 592.065 1259.39 620.897 1230.92C649.727 1202.44 678.99 1175.79 708.522 1151.2C738.054 1126.6 767.858 1104.06 797.75 1083.59C827.64 1063.1 857.611 1044.69 887.523 1028.07C917.439 1011.45 947.3 996.628 977.037 983.16C1006.78 969.687 1036.41 957.546 1065.94 946.194C1125.02 923.469 1183.7 903.854 1242.57 882.384L1241.99 887.157L1241.99 887.143Z" fill="black"/>
<path d="M1249.6 868.181C1188.25 890.862 1127.3 910.635 1066.04 933.11C1035.4 944.351 1004.69 956.265 973.849 969.522C943.015 982.773 912.049 997.372 881.003 1013.85C849.958 1030.32 818.827 1048.69 787.75 1069.28C756.675 1089.86 725.658 1112.66 694.898 1137.72C664.138 1162.77 633.646 1190.07 603.6 1219.37C573.549 1248.67 543.942 1279.96 514.871 1312.84C543.892 1279.82 573.458 1248.37 603.489 1218.9C633.516 1189.42 664.005 1161.94 694.776 1136.68C725.543 1111.43 756.588 1088.41 787.698 1067.62C818.814 1046.82 849.991 1028.24 881.094 1011.54C912.199 994.844 943.219 980.034 974.114 966.568C1005.01 953.101 1035.78 940.97 1066.46 929.524C1127.82 906.632 1188.83 886.46 1250.16 863.405L1249.6 868.165L1249.6 868.181Z" fill="black"/>
<path d="M1257.27 848.827C1193.4 873.441 1130.08 893.977 1066.51 916.719C1034.72 928.093 1002.86 940.03 970.873 953.282C938.888 966.526 906.765 981.1 874.538 997.632C842.315 1014.16 809.981 1032.65 777.682 1053.53C745.389 1074.39 713.134 1097.63 681.143 1123.33C649.151 1149 617.432 1177.12 586.181 1207.41C554.928 1237.7 524.157 1270.14 493.956 1304.3C524.104 1270 554.842 1237.4 586.078 1206.94C617.306 1176.48 649.023 1148.17 681.029 1122.29C713.03 1096.41 745.313 1072.95 777.649 1051.87C809.984 1030.79 842.37 1012.07 874.651 995.329C906.935 978.58 939.119 963.79 971.158 950.335C1003.2 936.875 1035.11 924.728 1066.95 913.148C1130.61 889.986 1193.98 869.061 1257.8 844.088L1257.28 848.838L1257.27 848.827Z" fill="black"/>
<path d="M1265.3 828.834C1198.86 855.795 1133.09 877.315 1067.18 900.428C1034.22 911.98 1001.21 923.948 968.058 937.206C934.912 950.457 901.627 964.995 868.209 981.563C834.801 998.117 801.259 1016.72 767.734 1037.85C734.211 1058.96 700.71 1082.61 667.469 1108.89C634.227 1135.16 601.257 1164.06 568.784 1195.3C536.311 1226.56 504.369 1260.25 473.049 1295.73C504.319 1260.1 536.228 1226.25 568.681 1194.81C601.133 1163.4 634.104 1134.31 667.361 1107.84C700.615 1081.36 734.148 1057.5 767.717 1036.17C801.288 1014.83 834.877 996.015 868.349 979.238C901.824 962.453 935.17 947.699 968.37 934.238C1001.57 920.77 1034.64 908.589 1067.64 896.831C1133.63 873.318 1199.43 851.396 1265.79 824.094L1265.31 828.821L1265.3 828.834Z" fill="black"/>
<path d="M1275.36 807.335C1206.13 837.217 1137.71 860.108 1069.28 883.783C1035.06 895.624 1000.81 907.684 966.423 920.967C932.04 934.242 897.521 948.732 862.846 965.307C828.177 981.877 793.354 1000.54 758.522 1021.9C723.693 1043.24 688.864 1067.29 654.29 1094.19C619.719 1121.08 585.421 1150.8 551.645 1183.08C517.871 1215.37 484.667 1250.3 452.131 1287.16C484.621 1250.16 517.787 1215.06 551.545 1182.6C585.301 1150.15 619.603 1120.22 654.188 1093.14C688.776 1066.04 723.644 1041.78 758.516 1020.22C793.394 998.649 828.271 979.766 862.996 962.979C897.728 946.186 932.313 931.482 966.745 917.995C1001.19 904.502 1035.48 892.235 1069.73 880.194C1138.23 856.121 1206.66 832.843 1275.77 802.624L1275.36 807.327L1275.36 807.335Z" fill="black"/>
<path d="M1283.51 785.864C1247.6 802.375 1211.88 816.78 1176.32 830.07C1140.75 843.365 1105.32 855.558 1069.91 867.749C1034.49 879.946 999.084 892.13 963.542 905.454C928.002 918.771 892.328 933.219 856.48 949.796C820.638 966.359 784.623 985.058 748.574 1006.61C712.529 1028.13 676.454 1052.52 640.633 1079.97C604.817 1107.4 569.267 1137.89 534.278 1171.12C499.284 1204.37 464.899 1240.46 431.226 1278.61C464.853 1240.31 499.204 1204.06 534.181 1170.64C569.157 1137.23 604.701 1106.55 640.542 1078.91C676.381 1051.26 712.491 1026.67 748.585 1004.92C784.685 983.158 820.756 964.241 856.656 947.461C892.561 930.675 928.297 916.011 963.887 902.483C999.48 888.947 1034.93 876.55 1070.37 864.162C1105.81 851.768 1141.25 839.387 1176.8 825.911C1212.35 812.433 1248.03 797.862 1283.87 781.196L1283.52 785.868L1283.51 785.864Z" fill="black"/>
<path d="M1291.8 763.463C1254.59 781.763 1217.56 797.558 1180.71 811.884C1143.87 826.216 1107.2 839.089 1070.58 851.723C1033.96 864.357 997.375 876.74 960.669 890.143C923.97 903.542 887.14 917.949 850.121 934.512C813.108 951.06 775.907 969.764 738.639 991.47C701.376 1013.15 664.062 1037.84 626.995 1065.82C589.929 1093.77 553.129 1125 516.92 1159.17C480.704 1193.36 445.13 1230.61 410.313 1270.05C445.08 1230.46 480.621 1193.05 516.823 1158.68C553.019 1124.33 589.822 1092.91 626.911 1064.75C664 1036.57 701.352 1011.67 738.665 989.779C775.983 967.861 813.245 948.933 850.316 932.176C887.392 915.405 924.279 900.78 961.03 887.179C997.783 873.57 1034.4 860.985 1071.04 848.152C1107.68 835.327 1144.35 822.255 1181.17 807.745C1217.98 793.24 1254.95 777.281 1292.08 758.836L1291.8 763.471L1291.8 763.463Z" fill="black"/>
<path d="M1302.83 738.628C1264.2 759.129 1225.73 776.665 1187.48 792.31C1149.22 807.967 1111.18 821.746 1073.23 834.972C1035.28 848.205 997.403 860.882 959.427 874.413C921.454 887.938 883.368 902.329 845.08 918.861C806.795 935.387 768.304 954.078 729.714 975.915C691.134 997.731 652.461 1022.71 614.037 1051.22C575.609 1079.71 537.443 1111.72 499.895 1146.92C462.34 1182.12 425.469 1220.63 389.405 1261.47C425.419 1220.48 462.256 1181.81 499.798 1146.43C537.333 1111.05 575.506 1078.85 613.955 1050.15C652.405 1021.44 691.12 996.24 729.753 974.205C768.395 952.148 806.948 933.242 845.29 916.499C883.639 899.75 921.783 885.151 959.799 871.42C997.82 857.691 1035.72 844.803 1073.69 831.382C1111.65 817.962 1149.68 803.994 1187.89 788.169C1226.09 772.35 1264.49 754.659 1303.01 734.036L1302.83 738.626L1302.83 738.628Z" fill="black"/>
<path d="M1312.58 713.238C1272.62 736.073 1232.77 755.51 1193.16 772.614C1153.54 789.731 1114.16 804.539 1074.92 818.464C1035.67 832.389 996.545 845.442 957.345 859.144C918.145 872.847 878.858 887.228 839.355 903.745C799.857 920.247 760.137 938.9 720.282 960.842C680.444 982.757 640.481 1007.98 600.747 1036.99C561.016 1065.96 521.537 1098.7 482.706 1134.85C443.871 1171.01 405.749 1210.72 368.496 1252.92C405.702 1210.57 443.791 1170.7 482.613 1134.37C521.431 1098.03 560.917 1065.1 600.673 1035.92C640.432 1006.71 680.437 981.269 720.333 959.136C760.234 936.98 800.022 918.107 839.578 901.396C879.143 884.672 918.486 870.074 957.723 856.17C996.963 842.268 1036.11 829.01 1075.36 814.894C1114.61 800.779 1153.96 785.793 1193.52 768.512C1233.07 751.243 1272.83 731.661 1312.66 708.715L1312.58 713.254L1312.58 713.238Z" fill="black"/>
<path d="M1325.51 684.59C1284.12 710.244 1242.75 732.047 1201.63 750.991C1160.5 769.956 1119.63 786.102 1078.95 800.941C997.569 830.648 916.869 855.194 835.165 888.211C794.329 904.697 753.26 923.287 712.027 945.312C670.805 967.309 629.421 992.766 588.253 1022.26C547.086 1051.74 506.158 1085.24 465.912 1122.43C425.659 1159.63 386.16 1200.65 347.593 1244.35C386.114 1200.51 425.579 1159.32 465.822 1121.94C506.055 1084.57 546.994 1050.86 588.192 1021.18C629.391 991.468 670.818 965.795 712.097 943.581C753.384 921.346 794.52 902.534 835.411 885.838C917.23 852.396 998.024 827.431 1079.38 797.359C1120.06 782.326 1160.89 766.014 1201.94 746.894C1242.98 727.794 1284.24 705.862 1325.48 680.115L1325.51 684.584L1325.51 684.59Z" fill="black"/>
<path d="M1336.28 655.707C1293.6 684.203 1250.82 708.478 1208.3 729.361C1165.76 750.281 1123.48 767.874 1081.42 783.736C997.299 815.498 914.083 840.351 829.886 873.352C787.802 889.833 745.478 908.35 702.952 930.426C660.439 952.467 617.731 978.106 575.219 1008.05C532.709 1037.95 490.42 1072.16 448.847 1110.31C407.267 1148.47 366.475 1190.72 326.671 1235.81C366.425 1190.58 407.183 1148.16 448.754 1109.83C490.317 1071.49 532.617 1037.08 575.158 1006.97C617.703 976.816 660.461 950.966 703.026 928.706C745.607 906.419 787.995 887.68 830.137 870.99C914.446 837.57 997.745 812.302 1081.82 780.182C1123.86 764.137 1166.09 746.38 1208.53 725.315C1250.96 704.287 1293.61 679.9 1336.12 651.327L1336.27 655.719L1336.28 655.707Z" fill="black"/>
<path d="M1349.68 623.356C1305.68 655.126 1261.43 682.309 1217.38 705.574C1173.33 728.859 1129.49 748.249 1085.94 765.399C998.795 799.751 912.813 825.158 825.92 858.15C782.479 874.649 738.801 893.076 694.881 915.18C650.98 937.25 606.841 963.041 562.87 993.416C518.905 1023.75 475.139 1058.68 432.124 1097.87C389.098 1137.05 346.904 1180.62 305.765 1227.22C346.854 1180.48 389.021 1136.74 432.034 1097.37C475.043 1058.01 518.82 1022.88 562.819 992.325C606.825 961.732 651.01 935.727 694.972 913.441C738.95 891.12 782.695 872.472 826.187 855.77C913.193 822.358 999.24 796.547 1086.31 761.844C1129.83 744.515 1173.6 724.963 1217.55 701.55C1261.48 678.156 1305.58 650.872 1349.41 619.044L1349.69 623.349L1349.68 623.356Z" fill="black"/>
<path d="M1363.52 588.758C1318.26 624.023 1272.57 654.406 1227 680.321C1204.22 693.289 1181.46 705.165 1158.78 716.122C1136.09 727.07 1113.46 737.092 1090.91 746.438C1045.81 765.126 1001.02 781.04 956.328 796.389C911.639 811.737 867.028 826.537 822.203 843.075C777.389 859.609 732.331 877.953 687.007 900.055C641.699 922.131 596.114 948.035 550.664 978.826C505.223 1009.57 459.955 1045.21 415.47 1085.41C370.979 1125.62 327.352 1170.52 284.856 1218.66C327.299 1170.38 370.896 1125.31 415.38 1084.91C459.859 1044.53 505.14 1008.68 550.62 977.729C596.102 946.727 641.74 920.604 687.109 898.313C732.493 875.986 777.609 857.434 822.477 840.689C867.349 823.946 912.004 808.94 956.711 793.392C1001.42 777.85 1046.2 761.742 1091.25 742.891C1113.78 733.47 1136.36 723.367 1159.01 712.343C1181.66 701.311 1204.36 689.371 1227.08 676.343C1272.51 650.319 1318.04 619.851 1363.11 584.555L1363.52 588.757L1363.52 588.758Z" fill="black"/>
<path d="M1379.53 550.315C1333.02 589.439 1285.87 623.482 1238.73 652.485C1191.57 681.539 1144.47 705.569 1097.72 726.124C1050.95 746.682 1004.53 763.822 958.286 779.927C912.035 796.039 865.928 811.139 819.626 827.778C773.338 844.39 726.827 862.62 679.999 884.721C633.192 906.78 586.071 932.762 539.047 963.954C492.032 995.091 445.163 1031.44 399.107 1072.72C353.046 1114.01 307.89 1160.32 263.944 1210.11C307.837 1160.18 352.966 1113.71 399.021 1072.22C445.071 1030.77 491.96 994.207 539.011 962.86C586.071 931.459 633.252 905.253 680.115 882.976C727.001 860.658 773.577 842.214 819.912 825.397C866.258 808.552 912.404 793.243 958.66 776.942C1004.91 760.647 1051.31 743.325 1098.01 722.608C1144.69 701.893 1191.7 677.723 1238.7 648.573C1285.7 619.478 1332.67 585.375 1378.96 546.233L1379.52 550.312L1379.53 550.315Z" fill="black"/>
<path d="M1397.24 507.966C1373.4 529.59 1349.34 549.96 1325.14 568.964C1300.94 587.968 1276.61 605.607 1252.23 621.883C1203.48 654.468 1154.61 681.477 1106.11 704.272C1081.86 715.682 1057.68 726.081 1033.59 735.749C1009.49 745.408 985.481 754.33 961.521 762.875C913.601 779.956 865.899 795.49 818.04 812.297C770.186 829.106 722.144 847.175 673.749 869.248C625.374 891.272 576.639 917.298 527.96 948.867C503.625 964.637 479.321 981.755 455.128 1000.26C430.938 1018.77 406.872 1038.65 383.01 1059.82C335.295 1102.24 288.516 1150.02 243.041 1201.55C288.463 1149.88 335.215 1101.93 382.927 1059.32C406.782 1038.05 430.855 1018.08 455.056 999.471C479.257 980.866 503.578 963.638 527.934 947.761C576.655 915.977 625.448 889.734 673.883 867.494C722.342 845.197 770.442 826.92 818.34 809.905C866.245 792.893 913.974 777.162 961.891 759.889C985.847 751.251 1009.85 742.242 1033.93 732.492C1058 722.742 1082.15 712.266 1106.36 700.779C1154.78 677.828 1203.52 650.707 1252.11 618.04C1276.4 601.728 1300.64 584.061 1324.74 565.035C1348.85 546.015 1372.81 525.644 1396.54 504.017L1397.25 507.968L1397.24 507.966Z" fill="black"/>
<path d="M1416.77 461.236C1392.37 485.08 1367.69 507.671 1342.81 528.837C1317.93 550.011 1292.85 569.766 1267.68 588.032C1242.5 606.305 1217.24 623.097 1191.98 638.474C1166.72 653.857 1141.47 667.823 1116.29 680.583C1065.92 706.122 1015.89 726.737 966.189 745.073C916.48 763.406 867.068 779.519 817.549 796.584C768.032 813.642 718.367 831.677 668.32 853.655C618.293 875.592 567.859 901.645 517.433 933.562C492.224 949.505 467.034 966.883 441.959 985.752C416.887 1004.61 391.929 1024.96 367.191 1046.71C317.721 1090.3 269.223 1139.61 222.132 1192.99C269.17 1139.48 317.642 1089.99 367.108 1046.22C391.842 1024.37 416.808 1003.93 441.891 984.961C466.977 965.988 492.184 948.5 517.414 932.45C567.883 900.327 618.377 874.05 668.465 851.897C718.573 829.703 768.299 811.452 817.856 794.195C867.419 776.923 916.849 760.61 966.541 742.097C1016.22 723.586 1066.2 702.792 1116.47 677.122C1141.6 664.299 1166.79 650.267 1191.98 634.837C1217.16 619.415 1242.35 602.582 1267.43 584.279C1292.51 565.985 1317.49 546.213 1342.27 525.03C1367.04 503.856 1391.62 481.27 1415.91 457.431L1416.77 461.23L1416.77 461.236Z" fill="black"/>
<path d="M1436.95 410.94C1412.04 437.058 1386.8 461.952 1361.29 485.407C1335.78 508.864 1310 530.881 1284.07 551.307C1258.13 571.742 1232.03 590.6 1205.9 607.882C1179.76 625.171 1153.59 640.886 1127.47 655.186C1075.21 683.823 1023.23 706.728 971.675 726.578C920.096 746.468 868.897 763.361 817.654 780.783C766.415 798.207 715.077 816.204 663.33 838.134C637.461 849.093 611.499 861.026 585.463 874.265C559.431 887.506 533.326 902.095 507.219 918.193C455.017 950.361 402.811 988.778 351.529 1033.52C325.894 1055.88 300.497 1079.78 275.423 1105.01C250.35 1130.24 225.603 1156.79 201.221 1184.41C225.58 1156.72 250.307 1130.09 275.367 1104.78C300.424 1079.47 325.818 1055.48 351.453 1033.01C402.732 988.09 454.966 949.461 507.218 917.072C533.346 900.866 559.479 886.164 585.54 872.819C611.604 859.467 637.595 847.43 663.493 836.367C715.301 814.221 766.692 796.013 817.968 778.388C869.244 760.764 920.455 743.677 972.006 723.609C1023.54 703.574 1075.44 680.521 1127.57 651.761C1153.63 637.394 1179.73 621.634 1205.79 604.302C1231.85 586.98 1257.85 568.099 1283.69 547.642C1309.53 527.193 1335.2 505.174 1360.6 481.716C1386.01 458.267 1411.14 433.378 1435.93 407.288L1436.95 410.933L1436.95 410.94Z" fill="black"/>
<path d="M1461.22 353.059C1435.82 381.672 1410.04 409.125 1383.91 435.157C1357.78 461.189 1331.31 485.786 1304.59 508.731C1251.16 554.678 1196.77 593.721 1142.48 626.173C1088.17 658.672 1034 684.484 980.335 706.343C926.644 728.241 873.405 746.274 820.221 764.238C767.033 782.2 713.825 800.221 660.188 822.1C633.371 833.036 606.459 844.928 579.459 858.171C552.459 871.414 525.369 886.015 498.271 902.239C444.077 934.671 389.8 973.792 336.5 1019.83C309.848 1042.82 283.443 1067.47 257.388 1093.55C231.333 1119.64 205.625 1147.17 180.311 1175.85C205.599 1147.1 231.29 1119.49 257.332 1093.32C283.373 1067.15 309.772 1042.41 336.421 1019.33C389.725 973.105 444.03 933.772 498.273 901.119C525.399 884.782 552.515 870.076 579.546 856.721C606.578 843.367 633.522 831.363 660.368 820.323C714.066 798.228 767.332 779.999 820.542 761.838C873.755 743.67 926.991 725.445 980.636 703.379C1034.26 681.352 1088.33 655.393 1142.5 622.787C1196.65 590.229 1250.85 551.134 1304.08 505.176C1330.69 482.222 1357.06 457.63 1383.07 431.61C1409.09 405.606 1434.76 378.167 1460.05 349.583L1461.22 353.059Z" fill="black"/>
<path d="M1440.36 344.522C1414.96 373.135 1389.18 400.594 1363.05 426.634C1336.92 452.674 1310.44 477.279 1283.73 500.233C1230.29 546.189 1175.9 585.263 1121.6 617.72C1067.28 650.241 1013.12 676.037 959.452 697.879C905.755 719.758 852.519 737.759 799.335 755.69C746.151 773.62 692.939 791.607 639.3 813.468C612.482 824.395 585.569 836.279 558.565 849.52C531.562 862.762 504.474 877.355 477.37 893.593C423.172 926.048 368.891 965.176 315.587 1011.24C288.936 1034.23 262.532 1058.89 236.474 1084.99C210.416 1111.08 184.712 1138.61 159.393 1167.29C184.685 1138.53 210.376 1110.92 236.417 1084.75C262.461 1058.56 288.855 1033.82 315.509 1010.72C368.814 964.473 423.123 925.132 477.372 892.465C504.501 876.121 531.616 861.415 558.649 848.069C585.684 834.716 612.629 822.72 639.473 811.687C693.173 789.61 746.438 771.414 799.648 753.286C852.861 735.152 906.097 716.96 959.745 694.911C1013.37 672.902 1067.44 646.952 1121.62 614.331C1175.77 581.766 1229.97 542.64 1283.2 496.674C1309.82 473.712 1336.18 449.111 1362.2 423.084C1388.22 397.075 1413.9 369.628 1439.19 341.044L1440.36 344.52L1440.36 344.522Z" fill="black"/>
<path d="M1419.5 335.983C1394.1 364.596 1368.31 392.063 1342.18 418.111C1316.05 444.16 1289.58 468.774 1262.86 491.742C1209.42 537.712 1155.03 576.804 1100.73 609.277C1046.41 641.813 992.238 667.599 938.569 689.423C884.873 711.278 831.638 729.254 778.454 747.152C725.27 765.049 672.062 783.004 618.417 804.846C591.601 815.757 564.684 827.64 537.68 840.881C510.679 854.116 483.589 868.716 456.479 884.96C402.275 917.438 347.994 956.566 294.689 1002.65C268.036 1025.65 241.632 1050.32 215.575 1076.42C189.519 1102.53 163.808 1130.06 138.493 1158.74C163.788 1129.98 189.475 1102.38 215.522 1076.19C241.562 1050 267.962 1025.24 294.615 1002.14C347.922 955.864 402.234 916.525 456.487 883.826C483.615 867.482 510.738 852.77 537.77 839.424C564.806 826.071 591.752 814.085 618.6 803.062C672.302 781.002 725.564 762.838 778.778 744.745C831.991 726.643 885.223 708.483 938.873 686.452C992.497 664.46 1046.57 638.527 1100.76 605.884C1154.91 573.312 1209.11 534.16 1262.35 488.181C1288.96 465.21 1315.33 440.595 1341.35 414.566C1367.36 388.543 1393.03 361.097 1418.33 332.506L1419.5 335.982L1419.5 335.983Z" fill="black"/>
<path d="M1398.64 327.445C1373.24 356.058 1347.45 383.531 1321.32 409.58C1295.19 435.629 1268.71 460.258 1241.99 483.235C1188.55 529.214 1134.16 568.336 1079.85 600.816C1025.53 633.368 971.352 659.142 917.684 680.95C863.986 702.788 810.752 720.731 757.567 738.595C704.383 756.459 651.175 774.381 597.532 796.207C570.715 807.11 543.797 818.983 516.789 832.223C489.784 845.456 462.694 860.056 435.584 876.3C381.378 908.794 327.093 947.945 273.782 994.043C247.126 1017.06 220.724 1041.74 194.667 1067.84C168.607 1093.95 142.901 1121.49 117.579 1150.17C142.874 1121.42 168.564 1093.8 194.607 1067.61C220.65 1041.42 247.049 1016.65 273.701 993.537C327.013 947.248 381.326 907.884 435.582 875.179C462.714 858.828 489.836 844.116 516.87 830.779C543.906 817.435 570.856 805.449 597.706 794.435C651.413 772.395 704.671 754.262 757.881 736.201C811.095 718.132 864.327 700.006 917.976 677.999C971.598 656.023 1025.68 630.102 1079.87 597.443C1134.03 564.865 1188.23 525.689 1241.47 479.692C1268.09 456.707 1294.45 432.089 1320.47 406.053C1346.49 380.012 1372.17 352.558 1397.46 323.967L1398.64 327.443L1398.64 327.445Z" fill="black"/>
<path d="M1377.78 318.906C1352.37 347.525 1326.58 375 1300.45 401.056C1274.32 427.113 1247.84 451.749 1221.12 474.735C1167.68 520.728 1113.28 559.876 1058.98 592.362C1004.64 624.936 950.466 650.694 896.793 672.483C843.093 694.303 789.858 712.213 736.674 730.044C683.489 747.875 630.285 765.764 576.636 787.572C549.818 798.466 522.9 810.339 495.891 823.571C468.887 836.803 441.789 851.4 414.679 867.653C360.471 900.154 306.182 939.336 252.871 985.443C226.217 1008.47 199.811 1033.15 173.753 1059.27C147.697 1085.39 121.984 1112.93 96.6628 1141.62C121.961 1112.86 147.651 1085.24 173.697 1059.04C199.738 1032.84 226.141 1008.07 252.792 984.946C306.103 938.648 360.421 899.262 414.678 866.54C441.813 850.182 468.939 835.472 495.973 822.135C523.009 808.791 549.961 796.814 576.811 785.809C630.518 763.793 683.776 745.693 736.989 727.658C790.198 709.621 843.431 691.528 897.085 669.54C950.709 647.581 1004.8 621.671 1058.99 588.996C1113.15 556.411 1167.36 517.204 1220.59 471.207C1247.21 448.212 1273.57 423.587 1299.6 397.536C1325.63 371.48 1351.31 344.02 1376.6 315.429L1377.77 318.905L1377.78 318.906Z" fill="black"/>
<path d="M1356.91 310.368C1331.51 338.986 1305.72 366.468 1279.58 392.533C1253.45 418.597 1226.98 443.243 1200.26 466.237C1146.81 512.237 1092.41 551.417 1038.1 583.902C983.768 616.492 929.587 642.24 875.912 664.012C822.21 685.814 768.978 703.684 715.795 721.49C662.614 739.29 609.406 757.144 555.759 778.936C502.14 800.681 448.034 826.459 393.793 859.005C339.579 891.52 285.292 930.72 231.975 976.841C205.322 999.878 178.914 1024.57 152.856 1050.7C126.798 1076.82 101.085 1104.36 75.7632 1133.05C101.065 1104.29 126.754 1076.67 152.799 1050.46C178.844 1024.25 205.241 999.464 231.895 976.335C285.209 930.031 339.527 890.611 393.791 857.884C448.081 825.118 502.253 799.125 555.932 777.164C609.641 755.166 662.899 737.099 716.113 719.097C769.322 701.094 822.555 683.034 876.207 661.062C929.833 639.12 983.926 613.22 1038.12 580.529C1092.28 547.937 1146.49 508.705 1199.73 462.694C1226.35 439.691 1252.72 415.052 1278.74 388.999C1304.77 362.942 1330.44 335.487 1355.74 306.89L1356.91 310.366L1356.91 310.368Z" fill="black"/>
<path d="M1336.05 301.829C1310.64 330.448 1284.85 357.937 1258.72 384.001C1232.59 410.075 1206.11 434.729 1179.39 457.73C1125.94 503.739 1071.54 542.95 1017.23 575.441C962.89 608.047 908.705 633.784 855.027 655.539C801.324 677.324 748.091 695.16 694.908 712.933C641.727 730.7 588.523 748.523 534.873 770.288C481.252 792.016 427.141 817.784 372.898 850.345C318.677 882.866 264.386 922.098 211.074 968.22C184.418 991.265 158.011 1015.97 131.954 1042.1C105.896 1068.23 80.1834 1095.78 54.8548 1124.47C80.1568 1095.71 105.849 1068.08 131.897 1041.86C157.94 1015.64 184.341 990.851 210.996 967.707C264.312 921.387 318.635 881.944 372.902 849.21C427.194 816.428 481.37 790.446 535.052 768.502C588.763 746.521 642.021 728.488 695.228 710.525C748.434 692.562 801.666 674.526 855.324 652.573C908.953 630.649 963.043 604.765 1017.24 572.052C1071.41 539.453 1125.63 500.19 1178.87 454.171C1205.48 431.16 1231.85 406.512 1257.88 380.453C1283.9 354.41 1309.58 326.948 1334.88 298.353L1336.05 301.829Z" fill="black"/>
<path d="M1315.19 293.291C1289.78 321.915 1263.99 349.398 1237.85 375.479C1211.72 401.559 1185.25 426.222 1158.53 449.232C1105.07 495.255 1050.67 534.484 996.353 566.989C942.01 599.609 887.82 625.345 834.141 647.082C780.438 668.842 727.203 686.652 674.022 704.385C620.841 722.118 567.637 739.908 513.985 761.656C460.362 783.366 406.249 809.117 352.001 841.702C297.777 874.229 243.486 913.485 190.167 959.622C163.509 982.682 137.103 1007.39 111.046 1033.53C84.9859 1059.66 59.2741 1087.22 33.9456 1115.91C59.2476 1087.15 84.9425 1059.51 110.99 1033.3C137.037 1007.07 163.436 982.271 190.095 959.119C243.414 912.792 297.736 873.316 352.01 840.576C406.307 807.771 460.485 781.807 514.169 759.881C567.882 737.917 621.14 719.917 674.347 701.987C727.554 684.057 780.785 666.054 834.446 644.119C888.076 622.213 942.174 596.331 996.373 563.61C1050.55 531.006 1104.76 491.718 1158.01 445.684C1184.63 422.665 1210.99 398.008 1237.02 371.941C1263.03 345.879 1288.72 318.41 1314.02 289.815L1315.19 293.291Z" fill="black"/>
<path d="M1294.33 284.752C1268.91 313.376 1243.12 340.867 1216.99 366.954C1190.85 393.044 1164.38 417.713 1137.65 440.739C1110.93 463.755 1083.96 485.071 1056.89 504.716C1029.81 524.353 1002.64 542.27 975.472 558.542C921.125 591.169 866.929 616.911 813.25 638.623C759.545 660.366 706.31 678.143 653.133 695.844C599.952 713.544 546.752 731.302 493.098 753.033C439.473 774.726 385.355 800.466 331.103 833.074C276.876 865.608 222.58 904.896 169.263 951.041C142.606 974.111 116.2 998.826 90.141 1024.97C64.0776 1051.11 38.3698 1078.67 13.0344 1107.37C38.3394 1078.6 64.0343 1050.96 90.0809 1024.74C116.127 998.506 142.529 973.697 169.187 950.537C222.507 904.194 276.832 864.702 331.108 831.947C385.41 799.127 439.592 773.164 493.279 751.265C546.994 729.318 600.252 711.351 653.459 693.455C706.666 675.558 759.898 657.589 813.556 635.669C867.189 613.789 921.291 587.9 975.492 555.172C1002.59 538.847 1029.68 520.895 1056.66 501.23C1083.64 481.562 1110.52 460.225 1137.13 437.207C1163.75 414.172 1190.12 389.507 1216.14 363.44C1242.17 337.348 1267.85 309.878 1293.16 281.276L1294.33 284.752Z" fill="black"/>
<path d="M1273.47 276.214C1248.05 304.838 1222.26 332.336 1196.13 358.425C1169.99 384.514 1143.51 409.199 1116.79 432.234C1090.07 455.25 1063.1 476.589 1036.02 496.235C1008.95 515.88 981.77 533.805 954.604 550.084C927.435 566.371 900.283 581.02 873.234 594.227C846.177 607.455 819.222 619.297 792.373 630.153C738.667 651.879 685.431 669.623 632.254 687.291C579.073 704.957 525.873 722.682 472.217 744.395C418.59 766.071 364.467 791.801 310.213 824.424C255.983 856.966 201.686 896.278 148.363 942.438C121.703 965.514 95.296 990.246 69.2375 1016.4C43.1751 1042.55 17.4605 1070.11 -7.86805 1098.81C17.4408 1070.04 43.1348 1042.39 69.1843 1016.16C95.2299 989.928 121.634 965.104 148.291 941.935C201.614 895.585 255.939 856.06 310.222 823.299C364.526 790.464 418.713 764.511 472.405 742.622C526.119 720.7 579.38 702.759 632.583 684.894C685.786 667.029 739.018 649.093 792.679 627.199C846.312 605.343 900.417 579.457 954.628 546.716C981.722 530.391 1008.82 512.425 1035.8 492.75C1062.79 473.076 1089.66 451.722 1116.28 428.703C1142.9 405.66 1169.26 380.987 1195.29 354.904C1221.3 328.816 1246.99 301.34 1272.29 272.738L1273.47 276.214Z" fill="black"/>
<path d="M1252.6 267.675C1227.19 296.299 1201.39 323.804 1175.26 349.9C1149.12 375.998 1122.64 400.691 1095.92 423.734C1069.2 446.75 1042.22 468.105 1015.15 487.758C988.076 507.412 960.89 525.343 933.721 541.629C906.552 557.915 879.402 572.574 852.345 585.777C825.291 598.998 798.327 610.836 771.478 621.684C717.765 643.391 664.534 661.103 611.357 678.738C558.18 696.373 504.979 714.064 451.321 735.76C397.692 757.418 343.564 783.138 289.304 815.776C235.067 848.323 180.77 887.66 127.445 933.835C100.786 956.92 74.3799 981.66 48.3185 1007.82C22.2532 1033.98 -3.4576 1061.54 -28.7929 1090.24C-3.48411 1061.47 22.2099 1033.83 48.2613 1007.58C74.3059 981.34 100.709 956.507 127.369 933.331C180.694 886.965 235.023 847.417 289.309 814.649C343.618 781.791 397.812 755.857 451.501 733.983C505.217 712.079 558.479 694.171 611.682 676.339C664.885 658.508 718.117 640.605 771.776 618.727C798.601 607.794 825.526 595.882 852.538 582.586C879.546 569.313 906.637 554.588 933.733 538.256C960.83 521.923 987.929 503.948 1014.91 484.267C1041.9 464.586 1068.77 443.214 1095.39 420.197C1122.01 397.147 1148.38 372.464 1174.41 346.374C1200.44 320.285 1226.12 292.8 1251.43 264.199L1252.6 267.675Z" fill="black"/>
<path d="M1231.74 259.137C1206.32 287.766 1180.53 315.273 1154.39 341.376C1128.25 367.481 1101.78 392.177 1075.05 415.235C1048.32 438.258 1021.35 459.621 994.276 479.281C967.196 498.949 940.014 516.882 912.842 533.175C885.673 549.461 858.517 564.134 831.459 577.329C804.401 590.548 777.441 602.379 750.586 613.217C696.872 634.906 643.644 652.587 590.467 670.188C537.293 687.783 484.089 705.448 430.432 727.12C376.801 748.76 322.675 774.464 268.406 807.123C241.283 823.42 214.152 841.373 187.131 861.064C160.114 880.757 133.2 902.136 106.538 925.228C79.8797 948.322 53.4706 973.07 27.4101 999.238C1.34874 1025.4 -24.3679 1052.98 -49.7071 1081.67C-24.3954 1052.9 1.29862 1025.25 27.3501 999.006C53.3976 972.757 79.7997 947.916 106.461 924.724C133.12 901.539 160.041 880.055 187.072 860.26C214.108 840.467 241.26 822.406 268.405 806.002C322.72 773.129 376.914 747.204 430.606 725.348C484.324 703.461 537.585 685.587 590.785 667.795C643.988 649.997 697.216 632.125 750.882 610.267C777.708 599.343 804.634 587.439 831.646 574.143C858.653 560.87 885.751 546.14 912.851 529.8C939.95 513.461 967.049 495.486 994.036 475.789C1021.02 456.099 1047.89 434.72 1074.52 411.696C1101.14 388.637 1127.51 363.94 1153.53 337.848C1179.57 311.753 1205.26 284.261 1230.57 255.661L1231.74 259.137Z" fill="black"/>
<path d="M1210.88 250.6C1185.58 279.095 1159.9 306.491 1133.89 332.495C1107.87 358.501 1081.52 383.115 1054.92 406.107C1028.31 429.039 1001.47 450.373 974.523 469.994C947.573 489.623 920.509 507.546 893.465 523.817C866.418 540.095 839.379 554.758 812.44 567.976C785.5 581.194 758.652 593.03 731.92 603.859C678.438 625.536 625.441 643.178 572.511 660.665C519.578 678.15 466.631 695.622 413.235 717.002C359.864 738.342 306.004 763.674 251.99 795.789C197.996 827.855 143.918 866.61 90.7736 912.211C64.2036 935.001 37.8775 959.434 11.8856 985.29C-14.1034 1011.14 -39.7592 1038.4 -65.0396 1066.8C-39.7857 1038.33 -14.1506 1010.99 11.8285 985.051C37.8036 959.113 64.1265 934.587 90.6972 911.707C143.843 865.915 197.955 826.942 251.995 794.662C306.062 762.328 359.99 736.775 413.419 715.226C466.873 693.638 519.874 675.956 572.833 658.273C625.792 640.582 678.79 622.75 732.218 600.902C758.926 589.988 785.736 578.078 812.626 564.79C839.517 551.502 866.489 536.779 893.47 520.449C920.445 504.125 947.423 486.167 974.284 466.51C1001.15 446.861 1027.89 425.511 1054.39 402.569C1080.88 379.574 1107.13 354.966 1133.03 328.968C1158.94 302.97 1184.51 275.596 1209.71 247.122L1210.88 250.598L1210.88 250.6Z" fill="black"/>
<path d="M1190.02 242.061C1141.34 296.877 1091.25 347.672 1040.12 392.298C1014.57 414.597 988.781 435.434 962.88 454.696C936.978 473.958 910.963 491.637 884.943 507.779C832.891 540.092 780.885 566.108 729.369 587.817C677.83 609.55 626.748 627.171 575.811 644.079C524.868 661.002 474.018 677.24 422.793 696.512C371.589 715.744 319.973 738.034 268.07 766.15C242.125 780.19 216.128 795.653 190.167 812.708C164.206 829.754 138.285 848.385 112.518 868.598C86.7515 888.811 61.1391 910.598 35.7954 933.823C10.444 957.045 -14.6397 981.696 -39.4004 1007.54C-14.6593 981.622 10.4104 956.882 35.7519 933.573C61.0895 910.263 86.6978 888.374 112.469 868.072C138.239 847.76 164.171 829.026 190.147 811.878C216.126 794.723 242.14 779.151 268.11 765.005C320.063 736.677 371.741 714.17 422.998 694.729C474.281 675.248 525.175 658.804 576.136 641.681C627.091 624.572 678.163 606.765 729.646 584.868C781.109 562.987 833.01 536.838 884.924 504.427C910.872 488.238 936.808 470.518 962.621 451.228C988.43 431.946 1014.12 411.095 1039.58 388.781C1090.5 344.136 1140.38 293.362 1188.84 238.584L1190.02 242.06L1190.02 242.061Z" fill="black"/>
<path d="M1169.16 233.523C1145.64 259.995 1121.82 285.527 1097.69 309.889C1073.57 334.237 1049.16 357.468 1024.5 379.164C999.845 400.903 974.98 421.287 949.985 440.206C924.994 459.126 899.883 476.578 874.758 492.572C849.63 508.573 824.488 523.116 799.409 536.357C774.327 549.605 749.309 561.551 724.385 572.473C674.526 594.346 625.101 611.973 575.876 628.511C526.643 645.054 477.567 660.525 428.202 678.193C378.854 695.843 329.174 715.83 279.143 740.811C254.133 753.292 229.056 767.006 203.964 782.151C178.875 797.288 153.783 813.86 128.776 831.927C103.772 849.988 78.8606 869.538 54.1408 890.504C29.4238 911.462 4.90248 933.837 -19.3476 957.443C4.8857 933.755 29.3942 911.301 54.1041 890.248C78.814 869.196 103.729 849.547 128.741 831.39C153.751 813.224 178.862 796.552 203.965 781.313C229.072 766.066 254.173 752.246 279.204 739.658C329.282 714.463 379.023 694.26 428.418 676.405C477.83 658.533 526.947 642.863 576.191 626.125C625.428 609.392 674.832 591.583 724.631 569.544C774.407 547.571 824.579 521.369 874.701 489.246C899.754 473.206 924.786 455.713 949.688 436.764C974.594 417.817 999.364 397.42 1023.92 375.667C1048.49 353.957 1072.8 330.732 1096.82 306.386C1120.85 282.025 1144.57 256.503 1167.98 230.045L1169.15 233.521L1169.16 233.523Z" fill="black"/>
<path d="M1148.29 224.984C1125.57 250.568 1102.56 275.277 1079.26 298.901L1066.14 312.105C1064.69 313.585 1063.21 314.972 1061.74 316.414C1055.87 322.11 1050 327.844 1044.12 333.497L1026.41 350.099C1024.93 351.504 1023.44 352.812 1021.96 354.164L1008.6 366.225C984.805 387.419 960.806 407.36 936.676 425.936C912.551 444.513 888.302 461.721 864.026 477.556C815.461 509.271 766.837 535.359 718.602 557.242C670.35 579.158 622.48 596.973 574.867 613.225C527.24 629.512 479.818 644.382 432.192 660.811C384.579 677.22 336.723 695.224 288.492 717.555C240.283 739.821 191.703 766.426 143.238 798.688C119.009 814.799 94.8227 832.298 70.7641 851.169C46.7084 870.032 22.7897 890.255 -0.911456 911.729C22.7768 890.175 46.6885 869.858 70.741 850.902C94.7936 831.946 118.983 814.349 143.223 798.134C191.709 765.665 240.325 738.859 288.585 716.382C336.866 693.838 384.773 675.632 432.433 659.009C480.099 642.38 527.556 627.301 575.188 610.825C622.808 594.376 670.65 576.384 718.836 554.308C767.008 532.267 815.528 506.045 863.952 474.239C888.158 458.35 912.325 441.109 936.369 422.498C960.409 403.894 984.325 383.936 1008.02 362.734L1021.33 350.667C1022.8 349.321 1024.29 348.012 1025.75 346.603L1043.4 329.996C1049.26 324.343 1055.1 318.599 1060.95 312.909C1062.4 311.473 1063.88 310.083 1065.33 308.602L1078.39 295.399C1101.58 271.781 1124.49 247.081 1147.12 221.507L1148.29 224.983L1148.29 224.984Z" fill="black"/>
<path d="M1127.43 216.446C1105.47 241.178 1083.22 265.098 1060.72 288.011L1052.27 296.545C1049.46 299.384 1046.65 302.269 1043.8 305.006L1026.79 321.605L1009.68 337.742L1007.54 339.754L992.482 353.453C946.534 394.796 899.774 431.383 852.849 462.69C805.92 494.053 758.878 520.142 712.188 542.083C665.476 564.066 619.114 581.975 573.029 598.105C526.933 614.239 481.076 628.662 435.093 644.096C389.116 659.515 342.979 675.972 296.479 695.967C249.999 715.936 203.145 739.561 156.248 768.315C109.362 797.007 62.4727 830.869 16.2324 869.785C62.447 830.709 109.337 796.657 156.247 767.759C203.163 738.814 250.06 714.973 296.584 694.798C343.124 674.604 389.315 657.936 435.332 642.309C481.355 626.677 527.234 612.055 573.333 595.723C619.422 579.396 665.754 561.316 712.394 539.172C759.019 517.079 805.953 490.863 852.741 459.401C899.524 427.994 946.114 391.354 991.881 349.987L1006.87 336.286L1009.01 334.271L1026.05 318.132L1042.99 301.528C1045.82 298.793 1048.62 295.913 1051.43 293.069L1059.84 284.529C1082.24 261.61 1104.38 237.697 1126.26 212.968L1127.43 216.444L1127.43 216.446Z" fill="black"/>
<path d="M1106.57 207.907C1085.31 231.848 1063.8 255.023 1042.04 277.267L1033.86 285.549C1031.13 288.299 1028.42 291.117 1025.67 293.768L1009.23 309.901L992.682 325.598C989.933 328.249 987.148 330.728 984.377 333.287L976.06 340.906C931.648 381.217 886.452 417.124 841.062 448.08C795.666 479.084 750.122 505.121 704.882 527.108C659.624 549.138 614.672 567.168 570.008 583.224C525.335 599.302 480.928 613.413 436.461 628.073C391.998 642.725 347.442 657.937 302.562 676.047C280.123 685.098 257.611 694.865 235.029 705.592C212.447 716.32 189.799 728.032 167.117 740.867C121.765 766.503 76.2786 796.78 31.2399 831.946C76.2587 796.606 121.75 766.139 167.13 740.3C189.82 727.368 212.486 715.555 235.089 704.721C257.689 693.893 280.223 684.018 302.68 674.867C347.603 656.551 392.203 641.133 436.703 626.279C481.203 611.426 525.631 597.107 570.298 580.845C614.952 564.602 659.872 546.393 705.057 524.217C750.228 502.077 795.668 475.914 840.926 444.813C886.179 413.768 931.208 377.8 975.439 337.464L983.722 329.84C986.479 327.284 989.251 324.8 991.993 322.145L1008.47 306.439L1024.85 290.294C1027.59 287.638 1030.29 284.817 1033.01 282.07L1041.15 273.781C1062.81 251.533 1084.23 228.361 1105.4 204.431L1106.57 207.907Z" fill="black"/>
<path d="M1085.71 199.369C1065.16 222.5 1044.39 244.921 1023.38 266.483L1009.56 280.533L991.692 298.144L975.723 313.395C973.065 315.967 970.384 318.406 967.711 320.881L959.684 328.293C916.82 367.538 873.213 402.717 829.385 433.267C785.55 463.863 741.53 489.811 697.764 511.829C653.984 533.882 610.47 552.052 567.25 568.077C480.779 600.172 395.461 623.767 308.942 656.68C265.701 673.103 222.162 691.869 178.395 714.658C134.641 737.428 90.6687 764.283 46.9509 795.766C90.6595 764.105 134.642 737.046 178.422 714.08C222.214 691.085 265.793 672.12 309.078 655.491C395.681 622.172 481.086 598.164 567.532 565.694C610.742 549.483 654.221 531.141 697.924 508.931C741.617 486.759 785.529 460.684 829.226 429.998C872.925 399.354 916.369 364.116 959.058 324.842L967.055 317.425C969.72 314.947 972.393 312.505 975.037 309.935L990.941 294.674L1006.76 279.011L1008.73 277.056L1010.7 275.055L1022.48 263.005C1043.39 241.443 1064.08 219.018 1084.54 195.893L1085.71 199.369Z" fill="black"/>
<path d="M1064.85 190.83C1044.96 213.218 1024.86 234.938 1004.55 255.863L991.188 269.502L989.269 271.406L973.912 286.609C968.774 291.586 963.621 296.499 958.473 301.446C957.183 302.669 955.902 303.938 954.606 305.134L942.962 315.955C901.526 354.198 859.383 388.674 816.989 418.815C774.597 448.997 731.989 474.826 689.595 496.857C647.189 518.917 605 537.215 563.107 553.251C479.281 585.391 396.671 608.476 313.14 638.703C271.385 653.8 229.38 670.712 187.115 691.103C144.863 711.458 102.348 735.357 59.9302 763.596C102.342 735.181 144.872 711.08 187.149 690.528C229.444 669.933 271.485 652.82 313.283 637.516C396.894 606.882 479.581 583.389 563.372 550.878C605.248 534.66 647.391 516.195 689.724 493.98C732.046 471.803 774.542 445.846 816.801 415.576C859.061 385.339 901.044 350.806 942.313 312.527L953.904 301.701C955.192 300.502 956.47 299.24 957.752 298.014L973.127 283.167L988.42 267.954L990.331 266.047L1003.63 252.402C1023.87 231.468 1043.88 209.737 1063.67 187.354L1064.85 190.83Z" fill="black"/>
<path d="M1043.98 182.292C1005.52 225.571 966.24 266.512 926.181 303.651C886.152 340.884 845.452 374.631 804.483 404.334C763.514 434.07 722.311 459.743 681.274 481.766C640.229 503.81 599.358 522.232 558.776 538.307C518.182 554.402 477.867 568.188 437.647 581.407C397.428 594.626 357.284 607.303 316.967 621.296C276.655 635.274 236.151 650.593 195.383 668.849C154.625 687.085 113.589 708.303 72.5272 733.486C113.587 708.119 154.64 686.701 195.428 668.262C236.228 649.802 276.769 634.283 317.117 620.104C357.471 605.911 397.647 593.031 437.889 579.614C478.131 566.196 518.453 552.214 559.023 535.943C599.584 519.685 640.407 501.102 681.376 478.911C722.337 456.749 763.432 430.949 804.268 401.126C845.108 371.328 885.655 337.519 925.516 300.25C965.416 263.054 1004.53 222.092 1042.81 178.816L1043.98 182.292Z" fill="black"/>
<path d="M1023.12 173.753C985.902 215.64 947.909 255.342 909.188 291.509C870.495 327.762 831.161 360.79 791.544 390.041C751.928 419.302 712.064 444.776 672.324 466.774C632.578 488.81 592.967 507.316 553.632 523.453C514.288 539.603 475.206 553.396 436.255 566.379C397.301 579.369 358.463 591.552 319.499 604.645C280.541 617.734 241.453 631.731 202.103 648.186C162.765 664.621 123.16 683.536 83.4419 706.015C123.162 683.354 162.789 664.24 202.159 647.603C241.535 630.951 280.67 616.74 319.657 603.457C358.654 590.161 397.525 577.776 436.494 564.593C475.46 551.417 514.545 537.426 553.866 521.1C593.179 504.78 632.734 486.11 672.405 463.935C712.066 441.797 751.822 416.196 791.309 386.849C830.796 357.503 869.978 324.413 908.516 288.113C947.079 251.889 984.902 212.168 1021.95 170.277L1023.12 173.753Z" fill="black"/>
<path d="M1002.26 165.215C966.297 205.69 929.615 244.128 892.239 279.302C854.894 314.546 816.942 346.828 778.696 375.57C740.45 404.313 701.95 429.565 663.528 451.496C625.105 473.451 586.776 492.1 548.706 508.29C510.624 524.509 472.793 538.357 435.114 551.172C397.43 564.001 359.898 575.813 322.291 588.151C284.688 600.482 247.002 613.361 209.087 628.203C171.178 643.04 133.032 659.872 94.7147 679.82C133.041 659.685 171.211 642.647 209.15 627.615C247.094 612.568 284.82 599.491 322.452 586.956C360.088 574.422 397.654 562.407 435.349 549.384C473.037 536.365 510.867 522.334 548.921 505.938C586.964 489.57 625.24 470.759 663.584 448.663C701.92 426.598 740.32 401.222 778.433 372.392C816.549 343.555 854.355 311.205 891.546 275.914C928.768 240.693 965.287 202.231 1001.09 161.739L1002.26 165.215Z" fill="black"/>
<path d="M981.4 156.678C946.606 195.838 911.141 233.097 875.026 267.318C838.934 301.606 802.27 333.171 765.306 361.4C728.343 389.647 691.114 414.647 653.935 436.481C616.752 458.338 579.633 477.05 542.74 493.341C505.843 509.629 469.177 523.547 432.677 536.28C396.174 549.02 359.838 560.583 323.48 572.345C287.122 584.107 250.73 596.096 214.137 609.645C177.554 623.182 140.768 638.296 103.78 656.1C140.777 638.109 177.591 622.791 214.207 609.051C250.826 595.305 287.254 583.115 323.644 571.151C360.035 559.187 396.396 547.418 432.903 534.489C469.408 521.567 506.068 507.464 542.933 490.996C579.792 474.534 616.859 455.659 653.96 433.669C691.059 411.695 728.182 386.576 765.022 358.238C801.86 329.915 838.383 298.285 874.327 263.945C910.29 229.661 945.592 192.377 980.223 153.2L981.396 156.676L981.4 156.678Z" fill="black"/>
<path d="M960.537 148.139C926.948 185.95 892.738 221.98 857.907 255.216C823.1 288.503 787.759 319.297 752.112 346.97C716.466 374.677 680.553 399.369 644.652 421.078C608.749 442.804 572.878 461.554 537.208 477.93C501.532 494.311 466.066 508.306 430.779 521.004C395.489 533.701 360.374 545.1 325.274 556.405C290.178 567.713 255.093 578.95 219.851 591.351C184.615 603.746 149.217 617.32 113.61 633.14C149.232 617.127 184.659 603.349 219.927 590.751C255.199 578.146 290.32 566.708 325.442 555.204C360.564 543.7 395.701 532.102 430.995 519.217C466.286 506.329 501.742 492.148 537.38 475.593C573.016 459.046 608.831 440.14 644.651 418.273C680.466 396.428 716.283 371.614 751.8 343.821C787.325 316.057 822.531 285.191 857.187 251.85C891.871 218.562 925.927 182.495 959.361 144.662L960.533 148.138L960.537 148.139Z" fill="black"/>
<path d="M939.675 139.601C907.21 176.146 874.168 211.027 840.548 243.322C806.946 275.658 772.838 305.712 738.424 332.836C704.016 360.003 669.332 384.377 634.638 405.933C599.94 427.512 565.243 446.27 530.726 462.703C496.202 479.166 461.861 493.264 427.706 505.96C393.544 518.662 359.562 529.969 325.635 540.949C291.708 551.93 257.824 562.605 223.827 574.104C189.836 585.598 155.721 597.929 121.409 612.114C155.739 597.729 189.884 585.203 223.907 573.506C257.934 561.803 291.85 550.926 325.803 539.748C359.756 528.571 393.753 517.071 427.915 504.17C462.073 491.275 496.397 476.996 530.883 460.368C565.365 443.764 600 424.848 634.616 403.135C669.227 381.446 703.811 356.948 738.102 329.691C772.4 302.47 806.367 272.35 839.827 239.956C873.298 207.616 906.19 172.69 938.499 136.123L939.671 139.599L939.675 139.601Z" fill="black"/>
<path d="M918.812 131.062C887.516 166.292 855.685 199.984 823.31 231.287C790.954 262.631 758.124 291.88 724.989 318.407C691.861 344.986 658.456 368.987 625.014 390.349C591.574 411.73 558.106 430.468 524.787 446.951C491.463 463.457 458.292 477.693 425.31 490.422C392.322 503.164 359.508 514.434 326.775 525.182C261.322 546.648 196.129 566.121 130.165 591.553C196.173 565.724 261.446 545.844 326.939 523.979C359.691 513.04 392.516 501.576 425.505 488.642C458.487 475.723 491.637 461.304 524.92 444.631C558.198 427.982 591.606 409.087 624.964 387.574C658.321 366.076 691.629 341.953 724.639 315.284C757.661 288.653 790.354 259.339 822.576 227.932C854.808 196.579 886.492 162.844 917.636 127.585L918.808 131.061L918.812 131.062Z" fill="black"/>
<path d="M897.95 122.524C867.784 156.407 837.122 188.793 806.003 219.199L788.468 236.158C786.519 238.033 784.543 239.797 782.585 241.618L764.911 257.915C762.947 259.725 760.987 261.562 759.004 263.266L735.286 284.068L711.436 303.954C679.568 329.895 647.427 353.492 615.232 374.627C583.035 395.777 550.784 414.474 518.661 430.998C486.531 447.528 454.519 461.931 422.692 474.701C390.857 487.501 359.195 498.786 327.64 509.376C264.52 530.569 201.78 549.037 138.437 571.957C201.828 548.642 264.64 529.763 327.797 508.179C359.374 497.39 391.047 485.91 422.872 472.924C454.692 459.969 486.681 445.39 518.77 428.694C550.856 412.004 583.041 393.157 615.155 371.873C647.271 350.598 679.31 326.893 711.067 300.856L734.83 280.902L758.456 260.037C760.431 258.33 762.38 256.489 764.335 254.675L781.931 238.346C783.885 236.515 785.849 234.746 787.79 232.868L805.253 215.871C836.235 185.4 866.757 152.966 896.774 119.046L897.946 122.522L897.95 122.524Z" fill="black"/>
<path d="M877.088 113.985C848.05 146.604 818.559 177.834 788.633 207.251C758.713 236.645 728.374 264.308 697.729 289.555C667.092 314.871 636.194 338.03 605.216 358.908C574.24 379.794 543.193 398.402 512.239 414.932C481.286 431.462 450.42 445.962 419.725 458.829C389.027 471.704 358.488 483.042 328.067 493.557C267.218 514.592 206.835 532.341 146.018 553.223C206.887 531.947 267.342 513.788 328.22 492.358C358.656 481.65 389.202 470.116 419.887 457.062C450.572 444.007 481.41 429.33 512.32 412.641C543.229 395.952 574.21 377.192 605.108 356.174C636.003 335.163 666.804 311.898 697.326 286.485C727.862 261.135 758.073 233.395 787.859 203.938C817.665 174.447 847.023 143.163 875.915 110.509L877.088 113.985Z" fill="black"/>
<path d="M856.225 105.447C828.32 136.803 799.992 166.874 771.265 195.279C742.54 223.668 713.428 250.472 684.013 275.077C654.612 299.737 624.954 322.416 595.201 342.998C565.448 363.58 535.612 382.061 505.838 398.56C476.063 415.074 446.361 429.626 416.8 442.61C387.24 455.568 357.831 466.987 328.539 477.483C269.954 498.482 211.884 515.749 153.546 534.973C211.938 515.348 270.07 497.674 328.686 476.29C357.985 465.606 387.402 453.991 416.949 440.853C446.493 427.689 476.174 412.953 505.901 396.278C535.629 379.612 565.401 360.988 595.072 340.273C624.743 319.566 654.305 296.764 683.599 272.011C712.903 247.311 741.893 220.424 770.491 191.966C799.091 163.492 827.286 133.367 855.053 101.971L856.225 105.447Z" fill="black"/>
<path d="M835.363 96.9082C808.553 127.036 781.351 155.983 753.781 183.4C726.209 210.81 698.285 236.763 670.067 260.704C641.859 284.699 613.4 306.889 584.84 327.13C556.279 347.386 527.617 365.692 498.996 382.14C470.376 398.595 441.797 413.201 413.348 426.274C384.897 439.33 356.578 450.838 328.387 461.352C271.989 482.4 216.13 499.402 160.153 517.36C216.185 499.001 272.106 481.592 328.523 460.163C356.728 449.446 385.045 437.755 413.478 424.518C441.91 411.263 470.459 396.488 499.031 379.871C527.604 363.263 556.197 344.813 584.68 324.425C613.164 304.045 641.521 281.747 669.624 257.651C697.735 233.616 725.545 207.575 752.992 180.09C780.443 152.607 807.513 123.606 834.191 93.4323L835.363 96.9082Z" fill="black"/>
<path d="M814.5 88.3698C788.812 117.239 762.759 145.028 736.371 171.428C709.982 197.81 683.264 222.888 656.265 246.124C629.278 269.407 602.049 291.056 574.709 310.924C547.366 330.799 519.916 348.887 492.486 365.241C465.054 381.602 437.639 396.227 410.331 409.377C383.023 422.527 355.827 434.121 328.75 444.71C274.588 465.876 220.964 482.789 167.358 499.766C221.016 482.395 274.702 465.076 328.875 443.525C355.956 432.747 383.146 420.968 410.437 407.636C437.725 394.312 465.106 379.515 492.49 362.993C519.875 346.48 547.26 328.24 574.521 308.241C601.783 288.241 628.917 266.479 655.803 243.097C682.697 219.76 709.302 194.602 735.567 168.144C761.845 141.667 787.769 113.815 813.328 84.8938L814.5 88.3698Z" fill="black"/>
<path d="M793.638 79.8312C769.119 107.394 744.273 133.96 719.11 159.284L704.941 173.446L700.19 178.033L685.92 191.772C684.335 193.306 682.752 194.833 681.151 196.294L662.011 214.032L642.768 231.189C617.052 253.697 591.112 274.735 565.047 294.163C538.983 313.598 512.8 331.409 486.613 347.624C460.426 363.839 434.239 378.46 408.135 391.655C382.03 404.874 356.012 416.577 330.11 427.248C278.295 448.586 226.979 465.563 175.807 481.819C227.033 465.162 278.397 447.79 330.224 426.066C356.13 415.206 382.138 403.317 408.224 389.923C434.304 376.553 460.457 361.768 486.596 345.392C512.732 329.024 538.849 311.062 564.836 291.503C590.822 271.944 616.675 250.795 642.29 228.179L661.458 210.951L680.515 193.146C682.109 191.681 683.686 190.144 685.264 188.607L699.469 174.825L704.199 170.221L718.304 156.016C743.346 130.609 768.071 103.969 792.466 76.3553L793.638 79.8312Z" fill="black"/>
<path d="M772.776 71.2927C725.89 123.988 677.768 173.139 628.649 216.704C604.1 238.477 579.332 258.925 554.44 277.903C529.55 296.89 504.536 314.407 479.502 330.446C429.423 362.562 379.312 388.639 329.685 410.068C280.031 431.585 230.833 448.724 181.859 464.559C230.888 448.323 280.13 430.787 329.789 408.89C379.417 387.089 429.487 360.646 479.46 328.23C504.443 312.036 529.393 294.377 554.205 275.259C579.018 256.149 603.695 235.589 628.146 213.709C677.074 169.942 724.965 120.63 771.603 67.8168L772.776 71.2927Z" fill="black"/>
<path d="M751.917 62.7558C707.46 112.726 661.892 159.504 615.414 201.352C568.946 243.196 521.656 280.221 474.207 311.771C426.749 343.366 379.182 369.547 332.009 391.174C284.816 412.885 238.011 430.306 191.496 445.903C238.066 429.905 284.908 412.093 332.095 390.006C379.262 368.002 426.782 341.47 474.135 309.575C521.485 277.72 568.616 240.438 614.891 198.383C661.178 156.323 706.522 109.38 750.741 59.2782L751.913 62.7542L751.917 62.7558Z" fill="black"/>
<path d="M731.055 54.2173C688.653 101.884 645.243 146.631 600.991 186.975C556.744 227.304 511.73 263.311 466.506 294.352C421.281 325.417 375.882 351.58 330.807 373.353C285.715 395.201 240.947 412.891 196.487 428.45C240.991 412.494 285.792 394.411 330.876 372.194C375.942 350.052 421.282 323.541 466.402 292.176C511.522 260.835 556.386 224.568 600.445 184.029C644.516 143.461 687.708 98.5423 729.879 50.7398L731.051 54.2157L731.055 54.2173Z" fill="black"/>
<path d="M710.192 45.6788C670.127 90.724 629.161 133.143 587.432 171.723C545.706 210.271 503.271 245.026 460.585 275.37C417.9 305.732 374.996 331.738 332.328 353.615C289.644 375.562 247.204 393.582 205.08 409.225C247.252 393.187 289.714 374.777 332.378 352.466C375.035 330.218 417.873 303.87 460.453 273.208C503.034 242.563 545.316 207.546 586.864 168.785C628.417 129.992 669.172 87.3953 709.016 42.2012L710.189 45.6772L710.192 45.6788Z" fill="black"/>
<path d="M689.33 37.1403C651.646 79.5084 613.169 119.535 574.008 156.252C534.844 192.919 495.04 226.294 454.953 255.802C414.872 285.32 374.536 311.024 334.346 332.928C294.147 354.887 254.11 373.211 214.37 389.033C254.154 372.814 294.207 354.107 334.382 331.781C374.546 309.517 414.817 283.48 454.794 253.662C494.769 223.859 534.435 190.22 573.424 153.333C612.408 116.402 650.689 76.1868 688.154 33.6627L689.326 37.1387L689.33 37.1403Z" fill="black"/>
<path d="M668.468 28.6018C633.179 68.2817 597.185 105.897 560.593 140.67C523.993 175.397 486.814 207.282 449.35 235.821C411.885 264.36 374.147 289.601 336.474 311.415C298.799 333.27 261.205 351.829 223.867 367.88C261.245 351.431 298.844 332.491 336.49 310.284C374.133 288.118 411.8 262.55 449.16 233.71C486.521 204.88 523.557 172.729 559.99 137.775C596.413 102.767 632.208 64.9712 667.292 25.1242L668.464 28.6002L668.468 28.6018Z" fill="black"/>
<path d="M647.605 20.0633C614.493 57.2892 580.769 92.688 546.508 125.634C512.244 158.554 477.453 188.984 442.372 216.524C407.295 244.065 371.937 268.735 336.586 290.338C301.233 311.981 265.9 330.653 230.768 346.908C265.93 330.267 301.264 311.213 336.582 289.224C371.9 267.268 407.186 242.269 442.159 214.436C477.135 186.597 511.788 155.902 545.888 122.758C579.985 89.5783 613.523 53.9873 646.433 16.5873L647.605 20.0633Z" fill="black"/>
<path d="M626.743 11.5248C596.005 46.0126 564.75 78.9356 533.031 109.793C501.315 140.652 469.14 169.439 436.677 195.751C404.219 222.073 371.481 245.915 338.701 267.176C305.919 288.452 273.1 307.156 240.415 323.592C273.115 306.773 305.933 287.694 338.675 266.069C371.418 244.454 404.076 220.296 436.429 193.682C468.784 167.077 500.826 138.037 532.384 106.939C563.949 75.8441 595.029 42.7163 625.571 8.04883L626.743 11.5248Z" fill="black"/>
<path d="M605.88 2.98631C577.654 34.6591 548.992 65 519.934 93.6349C490.879 122.271 461.424 149.192 431.706 174.079C401.988 198.966 372.007 221.812 341.94 242.481C311.874 263.16 281.721 281.669 251.647 298.144C281.73 281.29 311.864 262.417 341.887 241.397C371.907 220.385 401.814 197.219 431.428 172.04C461.046 146.862 490.367 119.68 519.268 90.8059C548.175 61.9266 576.67 31.3682 604.708 -0.489672L605.88 2.98631Z" fill="black"/>
<path d="M585.018 -5.55219C559.308 23.2913 533.234 51.0311 506.826 77.3809C480.422 103.732 453.682 128.685 426.706 151.989C399.726 175.299 372.509 196.952 345.177 216.824C317.848 236.696 290.409 254.781 262.988 271.113C290.407 254.406 317.82 235.963 345.102 215.747C372.38 195.538 399.521 173.572 426.397 149.97C453.273 126.376 479.881 101.154 506.142 74.5613C532.405 47.9775 558.315 20.0131 583.846 -9.02817L585.018 -5.55219Z" fill="black"/>
<path d="M564.156 -14.0907C517.907 37.7943 470.43 86.0812 422.063 129.148C397.882 150.691 373.492 170.928 348.98 189.746C324.466 208.571 299.833 225.97 275.176 241.923C299.825 225.601 324.424 207.849 348.878 188.692C373.333 169.544 397.643 148.991 421.719 127.157C469.887 83.5099 517.073 34.7391 562.983 -17.5667L564.156 -14.0907Z" fill="black"/>
<path d="M543.293 -22.6292C502.192 23.4529 460.137 66.6716 417.342 105.918C374.552 145.184 331.035 180.409 287.305 211.007C331.004 179.683 374.389 143.798 416.972 103.958C459.564 64.1381 501.345 20.4087 542.121 -26.1052L543.293 -22.6292Z" fill="black"/>
<path d="M522.435 -31.1661C486.757 8.79468 450.361 46.6019 413.383 81.5156C376.411 116.44 338.863 148.447 301.044 177.049C338.805 147.743 376.216 115.09 412.984 79.5841C449.757 44.0888 485.887 5.77411 521.259 -34.6437L522.431 -31.1677L522.435 -31.1661Z" fill="black"/>
<path d="M501.572 -39.7046C471.45 -6.01894 440.821 26.1312 409.767 56.2897C378.713 86.4569 347.231 114.631 315.485 140.473C347.148 113.941 378.48 85.133 409.333 54.3858C440.187 23.6473 470.563 -9.02137 500.396 -43.1822L501.569 -39.7062L501.572 -39.7046Z" fill="black"/>
<path d="M480.71 -48.2431C456.136 -20.827 431.236 5.55038 406.042 30.6709C380.847 55.7827 355.363 79.6306 329.658 102.011C355.25 78.9702 380.581 54.4951 405.575 28.8033C430.572 3.10433 455.233 -23.8113 479.534 -51.7207L480.706 -48.2447L480.71 -48.2431Z" fill="black"/>
<path d="M459.848 -56.7816C424.858 -17.9668 389.21 18.7358 353.038 52.6844C388.937 17.4537 424.181 -20.4019 458.672 -60.2592L459.844 -56.7832L459.848 -56.7816Z" fill="black"/>
<path d="M438.985 -65.3201C416.623 -40.8003 394.009 -17.147 371.172 5.46877C393.689 -18.3819 415.906 -43.1935 437.809 -68.7977L438.981 -65.3217L438.985 -65.3201Z" fill="black"/>
<path d="M418.123 -73.8586L390.355 -45.4011L416.951 -77.3346L418.123 -73.8586Z" fill="black"/>
</g>
</g>
</g>
<circle opacity="0.5" cx="684.088" cy="684.088" r="524.5" transform="rotate(22.2582 684.088 684.088)" fill="url(#paint0_radial_28_40)"/>
<defs>
<radialGradient id="paint0_radial_28_40" cx="0" cy="0" r="1" gradientUnits="userSpaceOnUse" gradientTransform="translate(684.088 159.588) rotate(90) scale(1049)">
<stop stop-color="#FFFF4F"/>
<stop offset="1" stop-color="#99992F" stop-opacity="0"/>
</radialGradient>
</defs>
</svg>
